<?xml version="1.0" encoding="iso-8859-1"?>
<!-- Generator: Adobe Illustrator 19.0.0, SVG Export Plug-In . SVG Version: 6.00 Build 0)  -->
<svg version="1.1" id="&#x56FE;&#x5C42;_1" xmlns="http://www.w3.org/2000/svg" xmlns:xlink="http://www.w3.org/1999/xlink" x="0px"
	 y="0px" viewBox="0 0 128 128" style="enable-background:new 0 0 128 128;" xml:space="preserve">
<g id="XMLID_1_">
	<g>
		<path d="M63.768,38.131c-17.353,0-31.423,14.067-31.423,31.421v38.606h63.293V69.552c0-17.354-14.066-31.421-31.42-31.421H63.768z
			 M27.288,56.95c0.558-2.771-1.239-5.469-4.01-6.026L8.461,47.949c-2.771-0.554-5.472,1.243-6.027,4.014
			c-0.117,0.586-0.132,1.188-0.044,1.779c0.314,2.067,1.886,3.811,4.055,4.248l14.817,2.973
			C24.036,61.518,26.734,59.723,27.288,56.95L27.288,56.95z M23.893,22.619l9.438,11.803c1.766,2.206,4.987,2.565,7.197,0.799
			c2.206-1.766,2.565-4.987,0.799-7.197l-9.441-11.8c-1.763-2.206-4.984-2.565-7.194-0.802c-1.484,1.185-2.13,3.024-1.864,4.774
			C22.962,21.085,23.33,21.921,23.893,22.619L23.893,22.619z M64.634,27.084c2.828,0.066,5.171-2.172,5.237-4.996l-0.035-15.11
			c0.067-2.825-2.172-5.171-4.996-5.237c-2.828-0.067-5.174,2.172-5.24,4.996l0.035,15.109c-0.007,0.3,0.013,0.6,0.057,0.898
			C60.059,25.152,62.114,27.026,64.634,27.084L64.634,27.084z M88.331,36.347c2.121,1.867,5.358,1.661,7.225-0.46l9.983-11.346
			c1.868-2.124,1.662-5.358-0.46-7.225c-2.124-1.867-5.358-1.661-7.225,0.46l-9.986,11.347c-1.04,1.182-1.436,2.71-1.218,4.155
			C86.825,34.425,87.393,35.519,88.331,36.347L88.331,36.347z M125.594,54.861c-0.425-2.796-3.037-4.718-5.83-4.29l-14.941,2.273
			c-2.796,0.425-4.718,3.034-4.293,5.83c0.425,2.796,3.037,4.718,5.833,4.293l14.938-2.276
			C124.097,60.266,126.018,57.657,125.594,54.861L125.594,54.861z M106.816,119.872c0,4.029-3.265,7.291-7.295,7.291H26.857
			c-4.03,0-7.295-3.262-7.295-7.291c0-4.029,3.265-7.292,7.295-7.292h72.664C103.551,112.58,106.816,115.843,106.816,119.872
			L106.816,119.872z M106.816,119.872"/>
	</g>
</g>
</svg>
