<?xml version="1.0" encoding="iso-8859-1"?>
<!-- Generator: Adobe Illustrator 19.0.0, SVG Export Plug-In . SVG Version: 6.00 Build 0)  -->
<svg version="1.1" id="&#x56FE;&#x5C42;_1" xmlns="http://www.w3.org/2000/svg" xmlns:xlink="http://www.w3.org/1999/xlink" x="0px"
	 y="0px" viewBox="0 0 128 128" style="enable-background:new 0 0 128 128;" xml:space="preserve">
<g id="XMLID_1_">
	<g>
		<path d="M24.762,91.43V52.223c0-18.969,13.472-34.789,31.366-38.423V9.094c0-4.333,3.509-7.841,7.841-7.841
			s7.841,3.509,7.841,7.841V13.8c17.894,3.634,31.366,19.454,31.366,38.423V91.43h3.932c4.325,0,7.83,3.481,7.83,7.841
			c0,4.333-3.509,7.841-7.83,7.841H20.83c-4.325,0-7.83-3.481-7.83-7.841c0-4.333,3.509-7.841,7.83-7.841H24.762z M75.732,114.954
			c0,6.497-5.266,11.762-11.762,11.762c-6.497,0-11.762-5.265-11.762-11.762H75.732z M75.732,114.954"/>
	</g>
</g>
</svg>
